<svg width="29" height="28" viewBox="0 0 29 28" fill="none" xmlns="http://www.w3.org/2000/svg">
<path d="M5.41536 23.3346C4.7737 23.3346 4.22439 23.1062 3.76745 22.6492C3.3105 22.1923 3.08203 21.643 3.08203 21.0013V7.0013C3.08203 6.35964 3.3105 5.81033 3.76745 5.35339C4.22439 4.89644 4.7737 4.66797 5.41536 4.66797H12.4154L14.7487 7.0013H24.082C24.7237 7.0013 25.273 7.22977 25.7299 7.68672C26.1869 8.14366 26.4154 8.69297 26.4154 9.33464V21.0013C26.4154 21.643 26.1869 22.1923 25.7299 22.6492C25.273 23.1062 24.7237 23.3346 24.082 23.3346H5.41536ZM5.41536 21.0013H24.082V9.33464H13.7862L11.4529 7.0013H5.41536V21.0013Z" />
</svg>
