<svg width="29" height="28" viewBox="0 0 29 28" fill="none" xmlns="http://www.w3.org/2000/svg">
<path d="M5.41797 22.1654V19.832H7.7513V11.6654C7.7513 10.0515 8.23741 8.62231 9.20964 7.37786C10.1819 6.11398 11.4457 5.28759 13.0013 4.8987V4.08203C13.0013 3.59592 13.1666 3.18759 13.4971 2.85703C13.8471 2.50703 14.2652 2.33203 14.7513 2.33203C15.2374 2.33203 15.6457 2.50703 15.9763 2.85703C16.3263 3.18759 16.5013 3.59592 16.5013 4.08203V4.8987C18.0569 5.28759 19.3207 6.11398 20.293 7.37786C21.2652 8.62231 21.7513 10.0515 21.7513 11.6654V19.832H24.0846V22.1654H5.41797ZM14.7513 25.6654C14.1096 25.6654 13.5555 25.4418 13.0888 24.9945C12.6416 24.5279 12.418 23.9737 12.418 23.332H17.0846C17.0846 23.9737 16.8513 24.5279 16.3846 24.9945C15.9374 25.4418 15.393 25.6654 14.7513 25.6654ZM10.0846 19.832H19.418V11.6654C19.418 10.382 18.961 9.28342 18.0471 8.36953C17.1332 7.45564 16.0346 6.9987 14.7513 6.9987C13.468 6.9987 12.3694 7.45564 11.4555 8.36953C10.5416 9.28342 10.0846 10.382 10.0846 11.6654V19.832Z" />
</svg>
