<svg width="29" height="28" viewBox="0 0 29 28" fill="none" xmlns="http://www.w3.org/2000/svg">
<path d="M14.7513 14.0013C13.468 14.0013 12.3694 13.5444 11.4555 12.6305C10.5416 11.7166 10.0846 10.618 10.0846 9.33464C10.0846 8.0513 10.5416 6.95269 11.4555 6.0388C12.3694 5.12491 13.468 4.66797 14.7513 4.66797C16.0346 4.66797 17.1332 5.12491 18.0471 6.0388C18.961 6.95269 19.418 8.0513 19.418 9.33464C19.418 10.618 18.961 11.7166 18.0471 12.6305C17.1332 13.5444 16.0346 14.0013 14.7513 14.0013ZM5.41797 23.3346V20.068C5.41797 19.4069 5.58811 18.7992 5.92839 18.2451C6.26866 17.6909 6.72075 17.268 7.28464 16.9763C8.49019 16.3735 9.71519 15.9214 10.9596 15.6201C12.2041 15.3187 13.468 15.168 14.7513 15.168C16.0346 15.168 17.2985 15.3187 18.543 15.6201C19.7874 15.9214 21.0124 16.3735 22.218 16.9763C22.7819 17.268 23.2339 17.6909 23.5742 18.2451C23.9145 18.7992 24.0846 19.4069 24.0846 20.068V23.3346H5.41797ZM7.7513 21.0013H21.7513V20.068C21.7513 19.8541 21.6978 19.6596 21.5909 19.4846C21.4839 19.3096 21.343 19.1735 21.168 19.0763C20.118 18.5513 19.0582 18.1576 17.9888 17.8951C16.9194 17.6326 15.8402 17.5013 14.7513 17.5013C13.6624 17.5013 12.5832 17.6326 11.5138 17.8951C10.4444 18.1576 9.38464 18.5513 8.33464 19.0763C8.15964 19.1735 8.01866 19.3096 7.91172 19.4846C7.80477 19.6596 7.7513 19.8541 7.7513 20.068V21.0013ZM14.7513 11.668C15.393 11.668 15.9423 11.4395 16.3992 10.9826C16.8562 10.5256 17.0846 9.9763 17.0846 9.33464C17.0846 8.69297 16.8562 8.14366 16.3992 7.68672C15.9423 7.22977 15.393 7.0013 14.7513 7.0013C14.1096 7.0013 13.5603 7.22977 13.1034 7.68672C12.6464 8.14366 12.418 8.69297 12.418 9.33464C12.418 9.9763 12.6464 10.5256 13.1034 10.9826C13.5603 11.4395 14.1096 11.668 14.7513 11.668Z" />
</svg>
