<svg width="44" height="44" viewBox="0 0 44 44" fill="none" xmlns="http://www.w3.org/2000/svg">
<path fill-rule="evenodd" clip-rule="evenodd" d="M16.5 9.16667C16.5 8.19421 16.8863 7.26157 17.5739 6.57394C18.2616 5.88631 19.1942 5.5 20.1667 5.5H23.8333C24.8058 5.5 25.7384 5.88631 26.4261 6.57394C27.1137 7.26157 27.5 8.19421 27.5 9.16667V16.5H34.8333C35.8058 16.5 36.7384 16.8863 37.4261 17.5739C38.1137 18.2616 38.5 19.1942 38.5 20.1667V23.8333C38.5 24.8058 38.1137 25.7384 37.4261 26.4261C36.7384 27.1137 35.8058 27.5 34.8333 27.5H27.5V34.8333C27.5 35.8058 27.1137 36.7384 26.4261 37.4261C25.7384 38.1137 24.8058 38.5 23.8333 38.5H20.1667C19.1942 38.5 18.2616 38.1137 17.5739 37.4261C16.8863 36.7384 16.5 35.8058 16.5 34.8333V27.5H9.16667C8.19421 27.5 7.26157 27.1137 6.57394 26.4261C5.88631 25.7384 5.5 24.8058 5.5 23.8333V20.1667C5.5 19.1942 5.88631 18.2616 6.57394 17.5739C7.26157 16.8863 8.19421 16.5 9.16667 16.5H16.5V9.16667Z" fill="#998372"/>
</svg>
