<svg width="29" height="28" viewBox="0 0 29 28" fill="none" xmlns="http://www.w3.org/2000/svg">
<path d="M23.6167 24.5L16.2667 17.15C15.6833 17.6167 15.0125 17.9861 14.2542 18.2583C13.4958 18.5306 12.6889 18.6667 11.8333 18.6667C9.71389 18.6667 7.92014 17.9326 6.45208 16.4646C4.98403 14.9965 4.25 13.2028 4.25 11.0833C4.25 8.96389 4.98403 7.17014 6.45208 5.70208C7.92014 4.23403 9.71389 3.5 11.8333 3.5C13.9528 3.5 15.7465 4.23403 17.2146 5.70208C18.6826 7.17014 19.4167 8.96389 19.4167 11.0833C19.4167 11.9389 19.2806 12.7458 19.0083 13.5042C18.7361 14.2625 18.3667 14.9333 17.9 15.5167L25.25 22.8667L23.6167 24.5ZM11.8333 16.3333C13.2917 16.3333 14.5312 15.8229 15.5521 14.8021C16.5729 13.7812 17.0833 12.5417 17.0833 11.0833C17.0833 9.625 16.5729 8.38542 15.5521 7.36458C14.5312 6.34375 13.2917 5.83333 11.8333 5.83333C10.375 5.83333 9.13542 6.34375 8.11458 7.36458C7.09375 8.38542 6.58333 9.625 6.58333 11.0833C6.58333 12.5417 7.09375 13.7812 8.11458 14.8021C9.13542 15.8229 10.375 16.3333 11.8333 16.3333Z" />
</svg>
