<svg width="29" height="28" viewBox="0 0 29 28" fill="none" xmlns="http://www.w3.org/2000/svg">
<path d="M10.082 20.9987L14.7487 17.4404L19.4154 20.9987L17.6654 15.2237L22.332 11.8987H16.6154L14.7487 5.83203L12.882 11.8987H7.16536L11.832 15.2237L10.082 20.9987ZM14.7487 25.6654C13.1348 25.6654 11.6181 25.3591 10.1987 24.7466C8.77925 24.1341 7.54453 23.3029 6.49453 22.2529C5.44453 21.2029 4.61328 19.9681 4.00078 18.5487C3.38828 17.1293 3.08203 15.6126 3.08203 13.9987C3.08203 12.3848 3.38828 10.8681 4.00078 9.4487C4.61328 8.02925 5.44453 6.79453 6.49453 5.74453C7.54453 4.69453 8.77925 3.86328 10.1987 3.25078C11.6181 2.63828 13.1348 2.33203 14.7487 2.33203C16.3626 2.33203 17.8793 2.63828 19.2987 3.25078C20.7181 3.86328 21.9529 4.69453 23.0029 5.74453C24.0529 6.79453 24.8841 8.02925 25.4966 9.4487C26.1091 10.8681 26.4154 12.3848 26.4154 13.9987C26.4154 15.6126 26.1091 17.1293 25.4966 18.5487C24.8841 19.9681 24.0529 21.2029 23.0029 22.2529C21.9529 23.3029 20.7181 24.1341 19.2987 24.7466C17.8793 25.3591 16.3626 25.6654 14.7487 25.6654Z" />
</svg>
